# xmcd
#
# Track frame offsets: 
#        150
#        12900
#        32300
#        47643
#        61208
#        75645
#        88590
#        101953
#        118508
#        134078
#        149075
#        164903
#        183033
#        200128
#        216050
#        232175
#        249793
#        265688
#        282338
#        299795
#
# Disc length: 4222 seconds
#
# Revision: 9
# Processed by: cddbd v1.5.2PL0 Copyright (c) Steve Scherf et al.
# Submitted via: ExactAudioCopy v0.99pb5
#
DISCID=33107c14
DTITLE=Various Artist - Just The Best 24 (2000_02) - CD 2
DYEAR=2000
DGENRE=Pop
TTITLE0=Guano Apes - Big In Japan
TTITLE1=Toten Hosen - Bayern
TTITLE2=HIM - Right Here In My Arms
TTITLE3=Moby - Natural Blues
TTITLE4=Gigi D'Agostino - Bla Bla Bla
TTITLE5=Kosmonova - Danse Avec Moi !
TTITLE6=Hypertraxx - The Darkside
TTITLE7=U96 - Das Boot 2001
TTITLE8=Paffendorf - Where Are You
TTITLE9=Members Of Mayday - Datapop
TTITLE10=Mabel - Disco - Disco
TTITLE11=Tom Novy feat. Lima - Now Or Never
TTITLE12=Dynamite Deluxe - Ladies and Gentlemen
TTITLE13=Steps - Say You'll Be Mine
TTITLE14=Passion Fruit - Wonderland
TTITLE15=Loona - La Vida (Es Una Flor)
TTITLE16=Eiffel 65 - Too Much Of Heaven
TTITLE17=Aqua - Cartoon Heroes
TTITLE18=French Affair - Do What You Like
TTITLE19=A*Teens - Gimme Gimme Gimme (A Man After Midnight)
EXTD=
EXTT0=
EXTT1=
EXTT2=
EXTT3=
EXTT4=
EXTT5=
EXTT6=
EXTT7=
EXTT8=
EXTT9=
EXTT10=
EXTT11=
EXTT12=
EXTT13=
EXTT14=
EXTT15=
EXTT16=
EXTT17=
EXTT18=
EXTT19=
PLAYORDER=
